HIERARCHY
ROOT Hips
{
    OFFSET 0.0 0.0 0.0
    CHANNELS 6 Xposition Yposition Zposition Zrotation Xrotation Yrotation
    JOINT LeftHipJoint
    {
        OFFSET 0.1 0.0 0.0
        CHANNELS 3 Zrotation Xrotation Yrotation
        JOINT LeftUpLeg
        {
            OFFSET 120.46774791593188 0.0 0.0
            CHANNELS 3 Zrotation Xrotation Yrotation
            JOINT LeftLeg
            {
                OFFSET 0.0 0.0 -413.9546338072871
                CHANNELS 3 Zrotation Xrotation Yrotation
                JOINT LeftFoot
                {
                    OFFSET 0.0 0.0 -396.56167943926664
                    CHANNELS 3 Zrotation Xrotation Yrotation
                    End Site
                    {
                        OFFSET 0.0 -0.1 0.0
                    }
                }
            }
        }
    }
    JOINT LowerBack
    {
        OFFSET 0.0 0.0 0.1
        CHANNELS 3 Zrotation Xrotation Yrotation
        JOINT Spine
        {
            OFFSET 0.0 0.0 218.21702752662426
            CHANNELS 3 Zrotation Xrotation Yrotation
            JOINT Spine1
            {
                OFFSET 0.0 0.0 249.0719074415191
                CHANNELS 3 Zrotation Xrotation Yrotation
                JOINT LeftShoulder
                {
                    OFFSET 0.1 0.0 0.0
                    CHANNELS 3 Zrotation Xrotation Yrotation
                    JOINT LeftArm
                    {
                        OFFSET 138.99021396220252 0.0 0.0
                        CHANNELS 3 Zrotation Xrotation Yrotation
                        JOINT LeftForeArm
                        {
                            OFFSET 256.5127439873805 0.0 0.0
                            CHANNELS 3 Zrotation Xrotation Yrotation
                            JOINT LeftHand
                            {
                                OFFSET 245.39521604163963 0.0 0.0
                                CHANNELS 3 Zrotation Xrotation Yrotation
                                End Site
                                {
                                    OFFSET 0.1 0.0 0.0
                                }
                            }
                        }
                    }
                }
                JOINT Neck
                {
                    OFFSET 0.0 0.0 0.1
                    CHANNELS 3 Zrotation Xrotation Yrotation
                    JOINT Neck1
                    {
                        OFFSET 0.0 0.0 106.66946640277074
                        CHANNELS 3 Zrotation Xrotation Yrotation
                        End Site
                        {
                            OFFSET 0.0 0.0 117.58587321865413
                        }
                    }
                }
                JOINT RightShoulder
                {
                    OFFSET -0.1 0.0 0.0
                    CHANNELS 3 Zrotation Xrotation Yrotation
                    JOINT RightArm
                    {
                        OFFSET -138.99021396220252 0.0 0.0
                        CHANNELS 3 Zrotation Xrotation Yrotation
                        JOINT RightForeArm
                        {
                            OFFSET -256.5127439873805 0.0 0.0
                            CHANNELS 3 Zrotation Xrotation Yrotation
                            JOINT RightHand
                            {
                                OFFSET -245.39521604163963 0.0 0.0
                                CHANNELS 3 Zrotation Xrotation Yrotation
                                End Site
                                {
                                    OFFSET -0.1 0.0 0.0
                                }
                            }
                        }
                    }
                }
            }
        }
    }
    JOINT RightHipJoint
    {
        OFFSET -0.1 0.0 0.0
        CHANNELS 3 Zrotation Xrotation Yrotation
        JOINT RightUpLeg
        {
            OFFSET -120.46774791593188 0.0 0.0
            CHANNELS 3 Zrotation Xrotation Yrotation
            JOINT RightLeg
            {
                OFFSET 0.0 0.0 -413.9546338072871
                CHANNELS 3 Zrotation Xrotation Yrotation
                JOINT RightFoot
                {
                    OFFSET 0.0 0.0 -396.56167943926664
                    CHANNELS 3 Zrotation Xrotation Yrotation
                    End Site
                    {
                        OFFSET 0.0 -0.1 0.0
                    }
                }
            }
        }
    }
}
MOTION
Frames: 9
Frame Time: 0.03333333333333333
0.0 0.0 809.1280299877927 26.69180622741517 0.8836067905080366 6.72938193705552 0.0 0.0 1.7393658414253607e-16 -0.5520110388635155 -15.160234876189026 -3.717397682607929 -0.7867098961616463 26.027482009889912 -0.47967555685771857 0.0 0.0 -7.951386703658792e-16 0.0 0.0 1.7393658414253607e-16 -0.051894720146816814 -1.4598012772089566 -1.8592729426034402 4.392642355952251 -4.189984580759533e-17 -1.092512499252158e-15 -1.7241821476758432e-34 -1.9878466759146977e-16 -9.939233379573489e-17 -21.42388819865838 12.414890778206285 76.74213702686701 -28.19689873571202 5.786755674859555e-15 -6.719346016164042e-15 0.0 0.0 -7.951386703658792e-16 -1.7241821476758432e-34 -1.9878466759146977e-16 -9.939233379573489e-17 -7.316684757044331 -0.11527343191819453 0.5999792251789421 -1.7241821476758432e-34 -1.9878466759146977e-16 -9.939233379573489e-17 -5.784811199517315 -23.991870604926774 -58.192277108952204 129.02764138386655 5.6081952149211415e-15 -4.3735325356321626e-15 1.5902773407317582e-15 0.0 0.0 0.0 0.0 1.7393658414253607e-16 -0.26044694645989097 -7.303309036604154 -6.129215691585368 -1.3691701403587277 18.54118431399476 -0.5717610625511415 -5.172546443027529e-33 1.4908850069360234e-15 3.9756933518293955e-16
0.0 0.0 809.1280299877927 26.591720457281514 0.9431334010490104 6.849438805234822 -3.1805546814635168e-15 -1.0345092886055059e-32 3.7272125173400585e-16 -0.6006973419936019 -15.193232633324348 -3.832960078278761 -0.7556537605200391 26.06013650470738 -0.527717003477696 0.0 0.0 3.975693351829396e-16 -3.1805546814635168e-15 -1.0345092886055059e-32 3.7272125173400585e-16 -0.05810498780950626 -1.5051926220073915 -2.042856712519505 4.476936007876435 -1.746960854617285e-17 -4.469242017712175e-16 -6.3611093629270335e-15 3.586298867165754e-32 -6.460501696722769e-16 -21.323036824724102 12.45821241622033 76.79561830070648 -28.19177101372689 1.6654736316523682e-14 -2.061756604814691e-14 0.0 0.0 -2.5842006786891076e-15 -6.3611093629270335e-15 3.586298867165754e-32 -6.460501696722769e-16 -7.228954692345383 -0.06209214762446261 0.47085333896048565 -6.3611093629270335e-15 3.586298867165754e-32 -6.460501696722769e-16 -5.396069782948394 -24.14303057653257 -57.99380386009807 128.62071508947724 -7.165435069976177e-15 -3.4468958163944166e-15 0.0 0.0 0.0 -3.1805546814635168e-15 -1.0345092886055059e-32 3.7272125173400585e-16 -0.29100726938325133 -7.5087538840961505 -6.204101402951365 -1.341869806171999 18.63391476223197 -0.7272178131737144 0.0 0.0 0.0
0.0 0.0 809.1280299877927 26.48696485670461 1.225789951493535 6.947588706001894 0.0 0.0 1.4908850069360235e-16 -0.6381603459157486 -15.510223645368914 -3.9276220678567153 -0.7607718654327107 26.21015592023226 -0.573347826263276 6.896728590703373e-34 -1.987846675914698e-16 3.975693351829396e-16 0.0 0.0 1.4908850069360235e-16 -0.06284544472997369 -1.5657843037226233 -2.178780891962833 4.486881204563202 -2.5289905670409908e-17 -6.455549879016965e-16 0.0 0.0 3.4787316828507215e-16 -21.100587682835243 12.229602822607358 76.72880363325983 -28.501385541337694 5.320809745317026e-16 4.365240974766472e-15 0.0 0.0 0.0 0.0 0.0 3.4787316828507215e-16 -7.140076090426525 -0.17210069700822989 0.19104222494404785 0.0 0.0 3.4787316828507215e-16 -5.0574634225673405 -24.341940008656653 -57.84453965611941 128.17350457428333 1.4303857032151296e-15 6.949667333640035e-16 1.590277340731758e-15 -1.5902773407317584e-15 -6.361109362927033e-15 0.0 0.0 1.4908850069360235e-16 -0.31489837367986334 -7.80873998188593 -6.3283650661733235 -1.352203234031537 18.617858939206673 -0.7586386302229184 0.0 0.0 3.975693351829396e-16
0.0 0.0 809.1280299877927 26.36552784849624 1.3920457580558492 7.050849616991892 0.0 0.0 -3.4787316828507215e-16 -0.6647560260780638 -15.737808588985246 -4.0435605141455895 -0.7860196102271901 26.202566515916267 -0.6170277498006986 -1.6552148617688095e-32 -1.5902773407317584e-15 -1.1927080055488188e-15 0.0 0.0 -3.4787316828507215e-16 -0.06995932409009206 -1.6991120679324203 -2.386693346572714 4.454842918337492 -5.920404283580345e-16 1.2249515840251858e-16 0.0 0.0 -4.969616689786745e-17 -21.360730592823312 12.064199317924231 76.78211527746902 -28.5515325829572 -1.902678540006209e-15 1.0286207536659007e-15 1.5902773407317588e-15 1.5902773407317588e-15 -6.559894030518505e-15 0.0 0.0 -4.969616689786745e-17 -6.821228122425481 -0.2613467623019077 0.15430499020816113 0.0 0.0 -4.969616689786745e-17 -4.6253267095159325 -24.427872344402513 -57.61336627164093 127.96589629998184 -1.5652346638365652e-14 -5.615164250457852e-16 1.5902773407317584e-15 0.0 0.0 0.0 0.0 -3.4787316828507215e-16 -0.3315825943625245 -8.01336894102565 -6.47053210358498 -1.3714633946901158 18.514312635579742 -0.7017252154351757 0.0 0.0 3.975693351829396e-16
0.0 0.0 809.1280299877927 26.159380371190895 1.5677847030437526 7.175328774967265 0.0 0.0 -1.211344068135519e-16 -0.7035161368593708 -15.83112697455115 -4.227216114378799 -0.8134318791579493 26.19924243514151 -0.5409282396043159 0.0 0.0 -7.951386703658792e-16 0.0 0.0 -1.211344068135519e-16 -0.07708651975709503 -1.780052056435467 -2.6595621696427787 4.531459604950079 3.5796461969744104e-16 -1.008863870429975e-15 0.0 0.0 -2.4848083448933725e-16 -21.47694374667181 11.779170360495435 76.81276705783291 -28.58986548553488 -8.405391925826916e-16 3.2987855252122814e-15 7.951386703658794e-16 5.517382872562698e-33 7.951386703658794e-16 0.0 0.0 -2.4848083448933725e-16 -6.6720975766940605 -0.41515803411949664 0.10279997470494999 0.0 0.0 -2.4848083448933725e-16 -4.1123644738413425 -24.739774487672847 -57.29264049327167 127.63645593701004 5.660876984081401e-15 -4.305126267601791e-15 0.0 0.0 0.0 0.0 0.0 -1.211344068135519e-16 -0.3550401886734067 -8.155592090476835 -6.584636002920606 -1.364094202191348 18.46294711240114 -0.6662173964152937 0.0 0.0 0.0
0.0 0.0 809.1280299877927 26.014821308451655 1.7534598964099917 7.1333237162697465 0.0 0.0 2.702229075071543e-16 -0.7279782814387751 -16.06207692030314 -4.184752309820085 -0.7668730064118486 26.196595551164325 -0.5352967802397873 0.0 0.0 -3.975693351829396e-16 0.0 0.0 2.702229075071543e-16 -0.07675333178235749 -1.739345672479964 -2.687477000553628 4.518528439789092 -3.7222739747283957e-17 -9.434931998762351e-16 0.0 0.0 1.2424041724466862e-16 -21.698286342873185 11.452848770807483 76.81143519971246 -28.69262306620991 -1.6007971713762925e-15 6.259035915336439e-15 0.0 0.0 1.987846675914698e-16 0.0 0.0 1.2424041724466862e-16 -6.711096591190108 -0.5483732340847586 0.055999661552891405 0.0 0.0 1.2424041724466862e-16 -3.708547436543153 -24.661669483962733 -57.26125942784542 127.5570171353168 7.133130961682249e-15 3.5132596252784792e-15 0.0 0.0 0.0 0.0 0.0 2.702229075071543e-16 -0.3777416668479999 -8.51126833634521 -6.485612572622346 -1.3339790148508865 18.722423590166763 -0.7881024672479104 0.0 0.0 0.0
0.0 0.0 809.1280299877927 25.885980244440262 1.9334906678759431 7.055360891757164 0.0 0.0 -8.696829207126804e-17 -0.7229782009496034 -16.205862242740128 -4.06595368927027 -0.7260658402504613 26.13018484434104 -0.543698722633951 0.0 0.0 3.975693351829396e-16 0.0 0.0 -8.696829207126804e-17 -0.07489504640423485 -1.7249081590042172 -2.6425517153945743 4.5110689179851775 -1.4386660436237308e-16 1.3982380353937585e-15 0.0 0.0 -2.4848083448933725e-16 -21.53396399863561 11.349649890173524 76.71837342622824 -28.986847613088628 4.1528083969599715e-15 -1.2888187572362226e-14 0.0 0.0 -1.987846675914698e-16 0.0 0.0 -2.4848083448933725e-16 -6.666690978257116 -0.7121430621583718 -0.17751414490082051 0.0 0.0 -2.4848083448933725e-16 -3.443756201238642 -24.608633053266118 -57.06800901684547 127.55905714979878 5.70655480424224e-15 2.81050610981328e-15 0.0 1.5902773407317584e-15 0.0 0.0 0.0 -8.696829207126804e-17 -0.38221745673967966 -8.746596626017876 -6.3439843046588456 -1.3052586436640357 18.804413655097186 -0.9483909212512602 0.0 0.0 3.975693351829396e-16
0.0 0.0 809.1280299877927 25.701613298614728 2.1196582319185326 7.010108574501074 0.0 0.0 -6.708982531212105e-16 -0.7305040550911401 -16.430462554991305 -4.022296407938941 -0.7051509769032753 26.024620846655107 -0.46527459520845915 -1.2414111463266072e-32 -1.7890620083232284e-15 -7.951386703658792e-16 0.0 0.0 -6.708982531212105e-16 -0.06981516865169733 -1.614665625227081 -2.586938099032479 4.553500119400374 -1.2832600516113248e-17 -3.22770088139202e-16 0.0 0.0 -9.93923337957349e-17 -21.413905988137316 11.06352145490861 76.6279423582537 -29.000826385575863 9.667007403769756e-17 -6.725062263469449e-15 0.0 0.0 -2.3854160110976376e-15 0.0 0.0 -9.93923337957349e-17 -6.669149127622835 -0.904047854302948 -0.41321928250416157 0.0 0.0 -9.93923337957349e-17 -3.109368054601577 -24.740422989721413 -57.04459830164331 127.41714019895942 -1.1406139464329743e-14 -5.635142573948907e-15 0.0 0.0 0.0 0.0 0.0 -6.708982531212105e-16 -0.39174250493401586 -8.997102973346063 -6.315734491043563 -1.2937236445466298 18.739234028992946 -1.0312400995440136 0.0 -9.93923337957349e-17 0.0
0.0 0.0 809.1280299877927 25.55472612956049 2.165629689584898 7.00701713237069 0.0 0.0 4.472655020808071e-16 -0.7309633676515348 -16.457706509195734 -3.9710454231050347 -0.67664167105887 25.87031568206556 -0.3360343434655348 0.0 0.0 0.0 0.0 0.0 4.472655020808071e-16 -0.06614033893601365 -1.531354786766652 -2.625344851468654 4.583784116793094 -2.9810540801602764e-17 -7.448461973010084e-16 0.0 0.0 3.975693351829396e-16 -21.321841841105492 10.896020977171492 76.57507341947056 -29.11984669818345 -3.73431179380662e-16 2.0415375623737528e-14 0.0 0.0 2.782985346280577e-15 0.0 0.0 3.975693351829396e-16 -6.681505919568628 -1.0185868168314516 -0.537425208482188 0.0 0.0 3.975693351829396e-16 -2.706187202877826 -24.745385843972336 -56.90199117490445 127.12166431062585 -7.831705248642653e-15 -3.894367601657621e-15 0.0 0.0 0.0 0.0 0.0 4.472655020808071e-16 -0.3985067372136792 -9.158409023939935 -6.353007310594762 -1.2945777171013684 18.574078669296224 -1.0006522185667401 0.0 0.0 0.0
